<svg width="89" height="88" viewBox="0 0 89 88" fill="none" xmlns="http://www.w3.org/2000/svg">
<g filter="url(#filter0_d_416_143)">
<path d="M88 44C88 68.3006 68.3006 88.0001 44 88.0001C19.6995 88.0001 -1.52588e-05 68.3006 -1.52588e-05 44C-1.52588e-05 19.6995 19.6995 0 44 0C68.3006 0 88 19.6995 88 44Z" fill="#012A30"/>
<path d="M34.6632 45.272H35.9526V50.8817C35.9526 51.3751 35.813 51.7613 35.5336 52.0402C35.2543 52.319 34.8675 52.4585 34.3731 52.4585H31.902V51.2035H34.1152C34.4806 51.2035 34.6632 51.0212 34.6632 50.6565V45.272Z" fill="#012A30"/>
<path d="M37.3898 50.0064V47.1011H38.6211V49.9957C38.6211 50.3974 38.7389 50.7346 38.9743 51.0071C39.2098 51.2726 39.5274 51.4053 39.927 51.4053C40.3338 51.4053 40.6552 51.2726 40.8908 51.0071C41.1333 50.7346 41.2546 50.3974 41.2546 49.9957V47.1011H42.4857V50.0064C42.4857 50.7884 42.2538 51.416 41.7898 51.8895C41.3259 52.3558 40.7051 52.589 39.927 52.589C39.1564 52.589 38.5389 52.3558 38.0752 51.8895C37.6181 51.416 37.3898 50.7884 37.3898 50.0064Z" fill="#012A30"/>
<path d="M46.8071 46.9717C47.4867 46.9717 48.0251 47.1901 48.4228 47.6268C48.8205 48.0564 49.0191 48.6435 49.0191 49.3881V52.4596H47.7721V49.5814C47.7721 49.159 47.6528 48.8225 47.4144 48.5719C47.1831 48.3141 46.8758 48.1853 46.4927 48.1853C46.0733 48.1853 45.7265 48.332 45.4516 48.6256C45.177 48.9119 45.0395 49.2842 45.0395 49.7425V52.4596H43.7925V47.122H45.0179V47.8094H45.0612C45.4805 47.2509 46.0625 46.9717 46.8071 46.9717Z" fill="#012A30"/>
<path d="M50.195 44.7495H51.5016V46.377H50.195V44.7495ZM50.195 47.1372H51.5016V52.4587H50.195V47.1372Z" fill="#012A30"/>
<path d="M55.378 52.5902C54.5044 52.5902 53.7923 52.3227 53.2418 51.7876C52.6913 51.2453 52.416 50.5747 52.416 49.7756C52.416 48.9765 52.6877 48.3094 53.2308 47.7743C53.7814 47.2392 54.497 46.9717 55.378 46.9717C56.244 46.9717 56.945 47.2392 57.481 47.7743C58.0242 48.3094 58.2959 48.9765 58.2959 49.7756C58.2959 50.5747 58.0242 51.2453 57.481 51.7876C56.9376 52.3227 56.2368 52.5902 55.378 52.5902ZM55.378 51.413C55.8624 51.413 56.2588 51.2561 56.567 50.9421C56.8753 50.6282 57.0294 50.2429 57.0294 49.7863C57.0294 49.3226 56.8753 48.9373 56.567 48.6305C56.2588 48.3166 55.8624 48.1596 55.378 48.1596C54.8789 48.1596 54.4715 48.3166 54.1558 48.6305C53.8473 48.9373 53.6932 49.3226 53.6932 49.7863C53.6932 50.2429 53.8473 50.6282 54.1558 50.9421C54.4715 51.2561 54.8789 51.413 55.378 51.413Z" fill="#012A30"/>
<path d="M61.9065 47.1011H63V48.3515H61.8849C61.4589 48.3515 61.1126 48.4844 60.8455 48.7503C60.5856 49.0162 60.4557 49.3791 60.4557 49.839V52.4583H59.2107V47.1011H60.4125V47.985H60.4557C60.7085 47.3957 61.192 47.1011 61.9065 47.1011Z" fill="#012A30"/>
<path d="M35.6059 36C36.3334 36 36.9433 36.2411 37.4356 36.7234C37.9281 37.1984 38.1742 37.7977 38.1742 38.5211C38.1742 39.2592 37.9243 39.8657 37.4247 40.3407C36.9322 40.8083 36.3261 41.0422 35.6059 41.0422H33.4674V43.3441H31.9021V36H35.6059ZM33.4674 39.5624H35.4845C35.8004 39.5624 36.0615 39.4674 36.2671 39.2774C36.4804 39.0874 36.5869 38.8353 36.5869 38.5211C36.5869 38.2288 36.4804 37.9876 36.2671 37.7977C36.0542 37.6077 35.7931 37.5127 35.4845 37.5127H33.4674V39.5624Z" fill="#012A30"/>
<path d="M39.1143 43.3441V36H42.2227C43.3177 36 44.2216 36.3435 44.9344 37.0304C45.6473 37.7173 46.0037 38.5905 46.0037 39.6501V39.683C46.0037 40.7426 45.6473 41.6195 44.9344 42.3137C44.2216 43.0006 43.3177 43.3441 42.2227 43.3441H39.1143ZM42.2007 37.5127H40.6796V41.8205H42.2007C42.8548 41.8205 43.384 41.6232 43.788 41.2285C44.1996 40.8339 44.4055 40.3188 44.4055 39.683V39.6501C44.4055 39.0143 44.1996 38.4992 43.788 38.1046C43.384 37.71 42.8548 37.5127 42.2007 37.5127Z" fill="#012A30"/>
<path d="M50.7301 36C51.4576 36 52.0677 36.2411 52.56 36.7234C53.0525 37.1984 53.2986 37.7977 53.2986 38.5211C53.2986 39.2592 53.0487 39.8657 52.5491 40.3407C52.0566 40.8083 51.4503 41.0422 50.7301 41.0422H48.5918V43.3441H47.0265V36H50.7301ZM48.5918 39.5624H50.6089C50.9249 39.5624 51.1859 39.4674 51.3916 39.2774C51.6046 39.0874 51.7113 38.8353 51.7113 38.5211C51.7113 38.2288 51.6046 37.9876 51.3916 37.7977C51.1783 37.6077 50.9175 37.5127 50.6089 37.5127H48.5918V39.5624Z" fill="#012A30"/>
<path fill-rule="evenodd" clip-rule="evenodd" d="M20.1814 52.6783H16.7181L20.811 36H24.2744L20.1814 52.6783Z" fill="#012A30"/>
<path fill-rule="evenodd" clip-rule="evenodd" d="M25.2211 52.6783H21.7577L25.8515 36H29.3156L25.2211 52.6783Z" fill="#012A30"/>
<path fill-rule="evenodd" clip-rule="evenodd" d="M9.35959 36.981C5.30189 36.981 2 40.2828 2 44.3405C2 48.3983 5.30189 51.6991 9.35959 51.6991C13.4173 51.6991 16.7182 48.3973 16.7182 44.3405C16.7182 40.2838 13.4173 36.981 9.35959 36.981Z" fill="#012A30"/>
<path d="M46.6632 45.272H47.9526V50.8817C47.9526 51.3751 47.813 51.7613 47.5336 52.0402C47.2543 52.319 46.8675 52.4585 46.3731 52.4585H43.902V51.2035H46.1153C46.4806 51.2035 46.6632 51.0212 46.6632 50.6565V45.272Z" fill="#00B533"/>
<path d="M49.3898 50.0064V47.1011H50.6211V49.9957C50.6211 50.3974 50.7389 50.7345 50.9743 51.0071C51.2098 51.2726 51.5274 51.4053 51.927 51.4053C52.3338 51.4053 52.6552 51.2726 52.8908 51.0071C53.1333 50.7345 53.2546 50.3974 53.2546 49.9957V47.1011H54.4857V50.0064C54.4857 50.7884 54.2538 51.416 53.7898 51.8895C53.3259 52.3558 52.7051 52.589 51.927 52.589C51.1564 52.589 50.5389 52.3558 50.0752 51.8895C49.6181 51.416 49.3898 50.7884 49.3898 50.0064Z" fill="#00B533"/>
<path d="M58.8071 46.9717C59.4867 46.9717 60.0251 47.1901 60.4228 47.6268C60.8205 48.0564 61.0191 48.6435 61.0191 49.3881V52.4596H59.7721V49.5814C59.7721 49.159 59.6528 48.8225 59.4144 48.5719C59.1831 48.3141 58.8758 48.1853 58.4927 48.1853C58.0733 48.1853 57.7265 48.332 57.4516 48.6256C57.177 48.9119 57.0395 49.2842 57.0395 49.7425V52.4596H55.7925V47.122H57.0179V47.8094H57.0612C57.4805 47.2509 58.0625 46.9717 58.8071 46.9717Z" fill="#00B533"/>
<path d="M62.195 44.7495H63.5016V46.377H62.195V44.7495ZM62.195 47.1372H63.5016V52.4587H62.195V47.1372Z" fill="#00B533"/>
<path d="M67.378 52.5902C66.5044 52.5902 65.7923 52.3227 65.2418 51.7876C64.6913 51.2453 64.416 50.5747 64.416 49.7756C64.416 48.9765 64.6877 48.3094 65.2308 47.7743C65.7814 47.2392 66.497 46.9717 67.378 46.9717C68.244 46.9717 68.9451 47.2392 69.481 47.7743C70.0242 48.3094 70.2959 48.9765 70.2959 49.7756C70.2959 50.5747 70.0242 51.2453 69.481 51.7876C68.9376 52.3227 68.2368 52.5902 67.378 52.5902ZM67.378 51.413C67.8624 51.413 68.2588 51.256 68.567 50.9421C68.8753 50.6282 69.0294 50.2429 69.0294 49.7863C69.0294 49.3226 68.8753 48.9373 68.567 48.6305C68.2588 48.3166 67.8624 48.1596 67.378 48.1596C66.8789 48.1596 66.4715 48.3166 66.1558 48.6305C65.8473 48.9373 65.6932 49.3226 65.6932 49.7863C65.6932 50.2429 65.8473 50.6282 66.1558 50.9421C66.4715 51.256 66.8789 51.413 67.378 51.413Z" fill="#00B533"/>
<path d="M73.9065 47.1011H75V48.3515H73.8849C73.4589 48.3515 73.1126 48.4844 72.8455 48.7503C72.5856 49.0162 72.4557 49.3791 72.4557 49.839V52.4583H71.2107V47.1011H72.4125V47.985H72.4557C72.7085 47.3957 73.192 47.1011 73.9065 47.1011Z" fill="#00B533"/>
<path d="M47.6059 36C48.3334 36 48.9433 36.2411 49.4356 36.7234C49.9281 37.1984 50.1742 37.7977 50.1742 38.5211C50.1742 39.2592 49.9243 39.8657 49.4247 40.3407C48.9322 40.8083 48.3261 41.0422 47.6059 41.0422H45.4674V43.3441H43.9021V36H47.6059ZM45.4674 39.5624H47.4845C47.8004 39.5624 48.0615 39.4674 48.2671 39.2774C48.4804 39.0874 48.5869 38.8353 48.5869 38.5211C48.5869 38.2288 48.4804 37.9876 48.2671 37.7977C48.0542 37.6077 47.7931 37.5127 47.4845 37.5127H45.4674V39.5624Z" fill="white"/>
<path d="M51.1143 43.3441V36H54.2227C55.3178 36 56.2216 36.3435 56.9344 37.0304C57.6472 37.7173 58.0037 38.5905 58.0037 39.6501V39.683C58.0037 40.7426 57.6472 41.6195 56.9344 42.3137C56.2216 43.0006 55.3178 43.3441 54.2227 43.3441H51.1143ZM54.2007 37.5127H52.6797V41.8205H54.2007C54.8548 41.8205 55.384 41.6232 55.788 41.2285C56.1996 40.8339 56.4055 40.3188 56.4055 39.683V39.6501C56.4055 39.0143 56.1996 38.4992 55.788 38.1046C55.384 37.71 54.8548 37.5127 54.2007 37.5127Z" fill="white"/>
<path d="M62.7301 36C63.4576 36 64.0677 36.2411 64.56 36.7234C65.0525 37.1984 65.2986 37.7977 65.2986 38.5211C65.2986 39.2592 65.0487 39.8657 64.5491 40.3407C64.0566 40.8083 63.4503 41.0422 62.7301 41.0422H60.5918V43.3441H59.0265V36H62.7301ZM60.5918 39.5624H62.6089C62.9249 39.5624 63.1859 39.4674 63.3916 39.2774C63.6046 39.0874 63.7113 38.8353 63.7113 38.5211C63.7113 38.2288 63.6046 37.9876 63.3916 37.7977C63.1783 37.6077 62.9175 37.5127 62.6089 37.5127H60.5918V39.5624Z" fill="white"/>
<path fill-rule="evenodd" clip-rule="evenodd" d="M32.1814 52.6783H28.7181L32.811 36H36.2744L32.1806 52.6783H32.1814Z" fill="white"/>
<path fill-rule="evenodd" clip-rule="evenodd" d="M37.2211 52.6783H33.7577L37.8515 36H41.3156L37.2218 52.6783H37.2211Z" fill="white"/>
<path fill-rule="evenodd" clip-rule="evenodd" d="M21.3596 36.981C17.3019 36.981 14 40.2828 14 44.3405C14 48.3983 17.3019 51.6991 21.3596 51.6991C25.4173 51.6991 28.7182 48.3973 28.7182 44.3405C28.7182 40.2838 25.4173 36.981 21.3596 36.981Z" fill="#00B533"/>
</g>
<defs>
<filter id="filter0_d_416_143" x="-1.52588e-05" y="0" width="89.0001" height="88" filterUnits="userSpaceOnUse" color-interpolation-filters="sRGB">
<feFlood flood-opacity="0" result="BackgroundImageFix"/>
<feColorMatrix in="SourceAlpha" type="matrix" values="0 0 0 0 0 0 0 0 0 0 0 0 0 0 0 0 0 0 127 0" result="hardAlpha"/>
<feOffset dx="1"/>
<feComposite in2="hardAlpha" operator="out"/>
<feColorMatrix type="matrix" values="0 0 0 0 0 0 0 0 0 0.709804 0 0 0 0 0.203922 0 0 0 1 0"/>
<feBlend mode="normal" in2="BackgroundImageFix" result="effect1_dropShadow_416_143"/>
<feBlend mode="normal" in="SourceGraphic" in2="effect1_dropShadow_416_143" result="shape"/>
</filter>
</defs>
</svg>
